<svg id="Capa_1" enable-background="new 0 0 511.975 511.975" height="512" viewBox="0 0 511.975 511.975" width="512" xmlns="http://www.w3.org/2000/svg"><g><path d="m511.975 255.988c0 134.977-104.474 245.564-236.963 255.292-5.222-12.779-23.336-12.738-28.486.072l-.184.451c-136.912-5.08-246.342-117.674-246.342-255.815 0-45.617 11.929-88.449 32.848-125.536 43.897-77.862 127.38-130.452 223.14-130.452 95.586 0 178.925 52.385 222.894 130.011.021.041.051.092.082.133 21.011 37.159 33.011 80.104 33.011 125.844z" fill="#4c1760"/><g><path d="m511.975 255.988c0 134.977-104.474 245.564-236.963 255.292-5.222-12.779-23.336-12.738-28.486.072l-.184.451c-136.912-5.08-246.342-117.674-246.342-255.815 0-45.617 11.929-88.449 32.848-125.536.225-.389.461-.778.686-1.178.051-.102.102-.205.154-.256 25.394 44.388 63.69 80.431 109.819 103.009 5.222 2.56 10.598 4.966 16.025 7.168 2.468 1.004 4.956 1.976 7.465 2.908 5.447 2.017 10.977 3.86 16.588 5.509 5.847 1.73 11.796 3.246 17.817 4.546 16.793 3.666 34.19 5.662 52.027 5.826h5.12c33.176-.307 64.867-6.963 93.896-18.79 5.427-2.202 10.803-4.608 16.025-7.168 46.078-22.578 84.425-58.621 109.819-103.009.051.051.102.154.154.256.143.246.287.492.44.737.021.041.051.092.082.133 21.01 37.16 33.01 80.105 33.01 125.845z" fill="#3a004d"/></g><g><path d="m260.125 436.817c-19.373 2.806-42.392-5.284-60.167-23.059-17.796-17.796-25.875-40.804-23.09-60.198 19.424-2.785 42.412 5.284 60.208 23.08 17.785 17.775 25.864 40.784 23.049 60.177z" fill="#ace334"/><path d="m260.125 436.817-83.257-83.257c19.424-2.785 42.412 5.284 60.208 23.08 17.785 17.775 25.864 40.784 23.049 60.177z" fill="#56c126"/><path d="m218.501 298.42c-11.724 15.687-33.708 26.244-58.857 26.244-25.169 0-47.153-10.557-58.898-26.244v-.01h.01c11.765-15.687 33.729-26.244 58.887-26.244 25.149 0 47.134 10.557 58.858 26.254z" fill="#ace334"/><path d="m218.501 298.42-117.744-.01c11.765-15.687 33.729-26.244 58.887-26.244 25.148 0 47.133 10.557 58.857 26.254z" fill="#56c126"/><path d="m190.977 175.843c-18.687-5.836-35.961-23.049-44.337-46.764-8.386-23.725-5.744-47.972 5.13-64.273 18.718 5.867 35.992 23.07 44.368 46.795 8.376 23.714 5.744 47.961-5.161 64.242z" fill="#ace334"/><path d="m190.977 175.843-39.207-111.037c18.718 5.867 35.992 23.07 44.368 46.795 8.376 23.714 5.744 47.961-5.161 64.242z" fill="#56c126"/><path d="m321.387 352.301c-17.776 17.786-40.794 25.865-60.167 23.059-2.816-19.383 5.273-42.402 23.049-60.178 17.796-17.796 40.794-25.865 60.219-23.08 2.785 19.394-5.304 42.402-23.101 60.199z" fill="#ace334"/><path d="m321.387 352.301c-17.776 17.786-40.794 25.865-60.167 23.059l83.268-83.257c2.785 19.393-5.304 42.401-23.101 60.198z" fill="#56c126"/><path d="m280.46 267.005c-10.301 22.936-28.947 38.675-48.054 42.934-9.512-17.12-10.137-41.501.164-64.437 10.311-22.957 28.937-38.664 48.085-42.975 9.492 17.141 10.116 41.521-.195 64.478z" fill="#ace334"/><path d="m280.46 267.005c-10.301 22.936-28.947 38.675-48.054 42.934l48.249-107.412c9.492 17.141 10.116 41.521-.195 64.478z" fill="#56c126"/><path d="m297.888 117.662c-17.776 17.776-40.784 25.865-60.167 23.059-2.816-19.394 5.273-42.402 23.049-60.178 17.796-17.796 40.794-25.865 60.219-23.09 2.784 19.405-5.305 42.413-23.101 60.209z" fill="#ace334"/><path d="m297.888 117.662c-17.776 17.776-40.784 25.865-60.167 23.059l83.268-83.268c2.784 19.405-5.305 42.413-23.101 60.209z" fill="#56c126"/><path d="m411.229 199.527c-15.308 8.489-37.077 9.042-57.577-.164-20.489-9.195-34.538-25.834-38.357-42.893 15.298-8.509 37.067-9.062 57.546.133 20.51 9.205 34.538 25.834 38.388 42.924z" fill="#ace334"/><path d="m411.229 199.527c-15.308 8.489-37.077 9.042-57.577-.164-20.489-9.195-34.538-25.834-38.357-42.893z" fill="#56c126"/></g><path d="m357.058 219.425h-28.67c0-18.98-7.64-36.57-21.52-49.52-13.86-12.94-31.99-19.35-51.03-18.04-33.45 2.31-60.42 29.27-62.72 62.72-.91 13.31 2.06 26.3 8.28 37.57 4.43 8.03 10.51 15.2 18.01 20.97 34.82 26.8 55.61 70.13 55.61 115.93v122.22c-6.29.46-12.63.7-19.03.7-3.24 0-6.45-.06-9.65-.17v-122.75c0-36.96-16.6-71.8-44.41-93.21-17.7-13.61-29.83-32.63-34.93-53.74-2.31-9.5-3.18-19.44-2.48-29.49 3.29-47.66 41.7-86.07 89.35-89.35 27.05-1.87 52.83 7.26 72.57 25.68 19.46 18.17 30.62 43.851 30.62 70.48z" fill="#56c126"/><path d="m342.728 219.425h-14.34c0-18.98-7.64-36.57-21.52-49.52-13.86-12.94-31.99-19.35-51.03-18.04-33.45 2.31-60.42 29.27-62.72 62.72-.91 13.31 2.06 26.3 8.28 37.57 4.43 8.03 10.51 15.2 18.01 20.97 34.82 26.8 55.61 70.13 55.61 115.93v122.22c-4.76.35-9.53.57-14.34.66v-122.88c0-40.63-17.82-79.79-50.01-104.57-12.21-9.39-21.7-22.15-27.08-36.87-3.84-10.5-5.6-22.01-4.78-34.01 2.8-40.47 35.59-73.25 76.04-76.04 47.96-3.3 87.88 34.61 87.88 81.86z" fill="#06995a"/></g></svg>