<svg id="Capa_1" enable-background="new 0 0 512 512" height="512" viewBox="0 0 512 512" width="512" xmlns="http://www.w3.org/2000/svg"><g><path d="m501.984 389.899c18.84-25.883 10.096-62.6-17.812-78.286-44.637-25.088-101.44-69.589-157.818-125.967s-100.879-113.182-125.967-157.818c-15.686-27.908-52.404-36.653-78.286-17.812-2.254 1.641-4.376 3.451-6.357 5.432-46.355 46.355 1.314 169.18 106.471 274.337s227.983 152.826 274.337 106.471c1.982-1.981 3.792-4.103 5.432-6.357z" fill="#c86d36"/><g><path d="m501.984 389.899c18.84-25.882 10.095-62.599-17.812-78.285-1.708-.96-3.439-1.957-5.181-2.974 7.517 16.782 6.448 36.988-5.232 53.034-1.641 2.254-3.451 4.376-5.433 6.358-44.262 44.262-158.245 2.795-259.995-92.588 4.509 4.811 9.135 9.595 13.883 14.343 105.157 105.157 227.983 152.826 274.337 106.471 1.983-1.984 3.793-4.105 5.433-6.359z" fill="#ac5e2e"/></g><path d="m372.856 476.368-337.224-337.224c-21.264-21.264-21.264-55.739 0-77.002 21.264-21.264 55.739-21.264 77.002 0l337.224 337.224c21.264 21.264 21.264 55.739 0 77.002-21.263 21.263-55.738 21.263-77.002 0z" fill="#ca2c2c"/><path d="m372.856 476.368-337.224-337.224c-21.264-21.264-21.264-55.739 0-77.002 21.264-21.264 55.739-21.264 77.002 0l337.224 337.224c21.264 21.264 21.264 55.739 0 77.002-21.263 21.263-55.738 21.263-77.002 0z" fill="#d83131"/><path d="m449.859 399.365-28.225-28.225c21.264 21.264 21.263 55.739 0 77.003-21.264 21.264-55.739 21.264-77.003 0l28.225 28.226c21.264 21.264 55.739 21.263 77.003 0 21.263-21.265 21.263-55.74 0-77.004z" fill="#ca2c2c"/><path d="m403.972 487.911c18.84-25.883 10.096-62.6-17.812-78.285-44.637-25.088-101.44-69.589-157.818-125.967-56.379-56.379-100.88-113.182-125.968-157.819-15.686-27.908-52.403-36.653-78.286-17.812-2.254 1.641-4.376 3.451-6.357 5.432-46.355 46.355 1.314 169.18 106.471 274.337s227.983 152.826 274.337 106.471c1.982-1.981 3.792-4.102 5.433-6.357z" fill="#d77f4a"/><path d="m403.972 487.911c18.84-25.883 10.096-62.6-17.812-78.285-44.637-25.088-101.44-69.589-157.818-125.967-56.379-56.379-100.88-113.182-125.968-157.819-15.686-27.908-52.403-36.653-78.286-17.812-2.254 1.641-4.376 3.451-6.357 5.432-46.355 46.355 1.314 169.18 106.471 274.337s227.983 152.826 274.337 106.471c1.982-1.981 3.792-4.102 5.433-6.357z" fill="#d77f4a"/><path d="m403.972 487.912c14.126-19.406 12.744-44.904-.595-63.06-1.653 5.114-4.116 10.067-7.469 14.673-1.641 2.254-3.451 4.376-5.433 6.358-46.355 46.355-169.18-1.313-274.337-106.471-58.849-58.848-99.684-123.226-116.121-176.641-.323 59.026 46.056 146.898 124.185 225.027 105.157 105.157 227.983 152.826 274.337 106.471 1.982-1.982 3.792-4.104 5.433-6.357z" fill="#c86d36"/><g><path d="m358.292 346.685c-15.229-15.229-17.603-29.097-19.512-40.24-1.609-9.395-2.771-16.183-11.666-25.078s-15.683-10.057-25.077-11.665c-11.142-1.909-25.01-4.283-40.238-19.511s-17.602-29.095-19.51-40.238c-1.609-9.394-2.771-16.181-11.665-25.076-8.893-8.893-15.681-10.056-25.075-11.664-11.142-1.907-25.01-4.281-40.238-19.509s-17.602-29.095-19.509-40.238c-1.609-9.393-2.771-16.181-11.665-25.076-5.5-5.5-5.5-14.415 0-19.915s14.415-5.5 19.915 0c15.228 15.228 17.602 29.095 19.51 40.238 1.608 9.394 2.771 16.181 11.665 25.075s15.682 10.056 25.075 11.665c11.142 1.907 25.01 4.281 40.237 19.508 15.228 15.228 17.602 29.095 19.51 40.238 1.609 9.394 2.771 16.181 11.665 25.076 8.895 8.895 15.683 10.057 25.077 11.665 11.142 1.909 25.01 4.283 40.238 19.511s17.603 29.095 19.512 40.239c1.609 9.395 2.771 16.183 11.667 25.079 8.895 8.895 15.683 10.057 25.078 11.666 11.143 1.909 25.011 4.283 40.24 19.513 5.5 5.5 5.5 14.415 0 19.915s-14.415 5.5-19.915 0c-8.896-8.896-15.684-10.058-25.079-11.667-11.145-1.907-25.012-4.282-40.24-19.511z" fill="#fec165"/></g><g fill="#fdb441"><path d="m306.953 261.206c-8.895-8.895-15.683-10.057-25.077-11.665-8.385-1.436-18.315-3.138-29.205-10.383 2.381 3.581 5.36 7.265 9.128 11.033 15.228 15.228 29.096 17.602 40.238 19.511 4.905.84 9.099 1.568 13.253 3.329-1.612-3.803-4.086-7.573-8.337-11.825z"/><path d="m210.462 164.716c-8.893-8.893-15.681-10.056-25.075-11.664-8.386-1.435-18.315-3.137-29.205-10.381 2.381 3.581 5.36 7.265 9.128 11.033 15.228 15.228 29.095 17.602 40.238 19.509 4.903.84 9.097 1.568 13.25 3.328-1.611-3.804-4.085-7.574-8.336-11.825z"/><path d="m443.525 357.949c-5.606-5.606-11.026-9.465-16.195-12.205.606 4.239-.705 8.698-3.966 11.959-5.5 5.5-14.415 5.5-19.915 0-8.896-8.896-15.684-10.058-25.079-11.667-8.387-1.436-18.316-3.139-29.207-10.383 2.382 3.58 5.361 7.264 9.129 11.032 15.228 15.228 29.095 17.603 40.239 19.512 9.395 1.609 16.183 2.771 25.079 11.667 5.5 5.5 14.415 5.5 19.915 0 5.499-5.5 5.499-14.415 0-19.915z"/></g></g></svg>