<svg height="504pt" viewBox="0 0 504 504.1409" width="504pt" xmlns="http://www.w3.org/2000/svg"><path d="m433.359375 430.515625 23.691406 40.957031c3.9375 6.71875 3.976563 15.027344.097657 21.777344-3.878907 6.753906-11.074219 10.90625-18.859376 10.890625-7.785156-.015625-14.964843-4.203125-18.8125-10.972656l-21.609374-37.3125-292.621094-.175781-21.257813 36.792968c-6.035156 10.289063-19.238281 13.78125-29.566406 7.816406-10.328125-5.960937-13.90625-19.140624-8.011719-29.507812l23.429688-40.527344zm0 0" fill="#f0c419"/><path d="m465.210938 176.074219c24.503906 31.570312 37.925781 70.335937 38.179687 110.296875 0 114.984375-112.636719 208.273437-251.660156 208.273437-139.019531 0-251.6601565-93.289062-251.6601565-208.273437.2578125-39.960938 13.6757815-78.726563 38.1835935-110.296875zm0 0" fill="#2c3e50"/><path d="m494.714844 130.167969c0-47.925781-110.730469-86.777344-247.324219-86.777344-136.589844 0-247.3203125 38.851563-247.3203125 86.777344 0 47.929687 110.7304685 86.78125 247.3203125 86.78125 136.59375 0 247.324219-38.851563 247.324219-86.78125zm0 0" fill="#35495e"/><path d="m128.851562 89.644531c-57.621093 12.0625-88.863281 30.457031-93.808593 40.523438 7.054687 8.824219 16.386719 15.546875 26.988281 19.441406 33.238281 15.707031 96.410156 32.628906 189.699219 32.628906 136.851562 0 208.878906-36.363281 216.691406-52.070312-4.515625-9.109375-30.460937-24.992188-77.929687-36.878907l-93.894532-13.800781c-14.058594-.867187-28.984375-1.386719-44.867187-1.386719zm0 0" fill="#65ddb9"/><path d="m468.421875 130.167969c-7.8125-15.707031-79.839844-52.066407-216.691406-52.066407-93.289063 0-156.460938 16.921876-189.699219 32.628907-10.601562 3.894531-19.933594 10.617187-26.988281 19.4375 3.792969 5.566406 8.964843 10.050781 15.011719 13.019531 3.871093-2.359375 7.871093-4.503906 11.976562-6.421875 33.238281-15.707031 96.410156-32.628906 189.699219-32.628906 106.21875 0 173.386719 21.867187 201.765625 39.050781 5.96875-3.042969 11.097656-7.515625 14.925781-13.019531zm0 0" fill="#46b29d"/><path d="m225.59375 298.054688c-6.625 1.574218-13.019531 3.988281-19.03125 7.183593-4.308594 2.234375-8.234375 5.132813-11.636719 8.589844-2.121093 1.886719-3.515625 4.453125-3.941406 7.257813.425781 2.804687 1.820313 5.371093 3.941406 7.253906 3.402344 3.460937 7.328125 6.359375 11.636719 8.589844 6.011719 3.195312 12.40625 5.609374 19.03125 7.1875 17.195312 4.003906 35.082031 4.003906 52.277344 0 6.621094-1.578126 13.015625-3.992188 19.027344-7.1875 4.308593-2.230469 8.238281-5.128907 11.640624-8.589844 2.117188-1.882813 3.511719-4.449219 3.9375-7.253906-.425781-2.804688-1.820312-5.371094-3.9375-7.257813-3.402343-3.457031-7.332031-6.355469-11.640624-8.589844-6.011719-3.195312-12.40625-5.609375-19.027344-7.183593l26.40625-12.722657c10.460937-5.074219 23.023437-2.597656 30.769531 6.074219 1.683594 1.902344 3.234375 3.914062 4.644531 6.023438 9.996094 14.179687 9.996094 33.113281 0 47.292968-5.410156 7.785156-12.378906 14.359375-20.460937 19.308594-9.410157 5.847656-19.652344 10.234375-30.375 13.019531-24.363281 6.363281-49.953125 6.363281-74.316407 0-10.722656-2.785156-20.964843-7.171875-30.375-13.019531-8.082031-4.949219-15.050781-11.523438-20.460937-19.308594-10-14.179687-10-33.113281 0-47.292968 1.410156-2.109376 2.960937-4.121094 4.640625-6.023438 7.75-8.671875 20.308594-11.148438 30.773438-6.074219zm0 0" fill="#556080"/><path d="m243.054688 60.746094c0 33.546875-27.199219 60.746094-60.746094 60.746094-33.550782 0-60.746094-27.199219-60.746094-60.746094 0-33.550782 27.195312-60.746094 60.746094-60.746094 33.546875 0 60.746094 27.195312 60.746094 60.746094zm0 0" fill="#71c285"/><path d="m390.578125 91.117188c0 26.363281-21.367187 47.730468-47.726563 47.730468-26.363281 0-47.730468-21.367187-47.730468-47.730468 0-26.359376 21.367187-47.726563 47.730468-47.726563 26.359376 0 47.726563 21.367187 47.726563 47.726563zm0 0" fill="#71c285"/><path d="m190.984375 34.710938c0 14.378906-11.65625 26.035156-26.03125 26.035156-14.378906 0-26.035156-11.65625-26.035156-26.035156 0-14.378907 11.65625-26.03125 26.035156-26.03125 14.375 0 26.03125 11.652343 26.03125 26.03125zm0 0" fill="#fff"/><path d="m338.511719 69.421875c0 9.585937-7.769531 17.359375-17.355469 17.359375s-17.355469-7.773438-17.355469-17.359375c0-9.582031 7.769531-17.355469 17.355469-17.355469s17.355469 7.773438 17.355469 17.355469zm0 0" fill="#fff"/><path d="m86.597656 283.933594c0-36.992188-15.242187-66.984375-34.042968-66.984375-18.800782 0-34.042969 29.992187-34.042969 66.984375 0 36.996094 15.242187 66.984375 34.042969 66.984375 18.800781 0 34.042968-29.988281 34.042968-66.984375zm0 0" fill="#35495e"/></svg>