<svg id="Layer_3" enable-background="new 0 0 64 64" height="512" viewBox="0 0 64 64" width="512" xmlns="http://www.w3.org/2000/svg"><path d="m32 20-1.82-4.248c-2.982-.802-5.18-3.517-5.18-6.752 0-3.866 3.134-7 7-7s7 3.134 7 7c0 3.235-2.198 5.95-5.18 6.752z" fill="#c66b60"/><path d="m25 9c0 3.182 2.131 5.851 5.038 6.701 3.553-1.786 5.962-5.236 5.962-9.201 0-1.303-.272-2.544-.747-3.695-.972-.512-2.078-.805-3.253-.805-3.866 0-7 3.134-7 7z" fill="#e47c6e"/><path d="m52 20-1.82-4.248c-2.982-.802-5.18-3.517-5.18-6.752 0-3.866 3.134-7 7-7s7 3.134 7 7c0 3.235-2.198 5.95-5.18 6.752z" fill="#2b74ca"/><path d="m45 9c0 3.182 2.131 5.851 5.038 6.701 3.553-1.786 5.962-5.236 5.962-9.201 0-1.303-.272-2.544-.747-3.695-.972-.512-2.078-.805-3.253-.805-3.866 0-7 3.134-7 7z" fill="#3d98f7"/><path d="m13 20-1.82-4.248c-2.982-.802-5.18-3.517-5.18-6.752 0-3.866 3.134-7 7-7s7 3.134 7 7c0 3.235-2.198 5.95-5.18 6.752z" fill="#2b74ca"/><path d="m6 9c0 3.182 2.131 5.851 5.038 6.701 3.553-1.786 5.962-5.236 5.962-9.201 0-1.303-.272-2.544-.747-3.695-.972-.512-2.078-.805-3.253-.805-3.866 0-7 3.134-7 7z" fill="#3d98f7"/><path d="m46 46c-2.209 0-4-1.791-4-4v-6c0-2.209 1.791-4 4-4h12c2.209 0 4 1.791 4 4v6c0 2.209-1.791 4-4 4" fill="#3d98f7"/><path d="m46 44v14h4v-10h4v10h4v-14" fill="#4d5d7a"/><path d="m52 30c-1.657 0-3-1.343-3-3v-2c0-1.657 1.343-3 3-3 1.657 0 3 1.343 3 3v2c0 1.657-1.343 3-3 3z" fill="#efbe9a"/><path d="m58 46v-4h4c0 2.209-1.791 4-4 4z" fill="#efbe9a"/><path d="m46 46v-4h-4c0 2.209 1.791 4 4 4z" fill="#efbe9a"/><path d="m44 62h6v-4h-4c-1.105 0-2 .895-2 2z" fill="#3d98f7"/><path d="m60 62h-6v-4h4c1.105 0 2 .895 2 2z" fill="#3d98f7"/><g fill="#fff"><path d="m31 5h2v5h-2z"/><path d="m31 12h2v2h-2z"/><path d="m53 12h-2v-2c0-.552.448-1 1-1 .551 0 1-.449 1-1s-.449-1-1-1-1 .449-1 1h-2c0-1.654 1.346-3 3-3s3 1.346 3 3c0 1.304-.836 2.416-2 2.829z"/><path d="m51 13h2v2h-2z"/><path d="m13 12h-2v-2c0-.552.448-1 1-1 .551 0 1-.449 1-1s-.449-1-1-1-1 .449-1 1h-2c0-1.654 1.346-3 3-3s3 1.346 3 3c0 1.304-.836 2.416-2 2.829z"/><path d="m11 13h2v2h-2z"/></g><path d="m32 30c-1.657 0-3-1.343-3-3v-2c0-1.657 1.343-3 3-3 1.657 0 3 1.343 3 3v2c0 1.657-1.343 3-3 3z" fill="#efbe9a"/><path d="m24 62h6v-4h-4c-1.105 0-2 .895-2 2z" fill="#c66b60"/><path d="m40 62h-6v-4h4c1.105 0 2 .895 2 2z" fill="#c66b60"/><path d="m38 58v-22h2c2.209 0 4-1.791 4-4v-10h-4v10h-16v-10h-4v10c0 2.209 1.791 4 4 4h2v22h4v-10h4v10" fill="#4d5d7a"/><path d="m26 44v-8h-2c-2.209 0-4-1.791-4-4v-10h4v10h16v-10h4v10c0 2.209-1.791 4-4 4h-2v8" fill="#c66b60"/><path d="m6 46c-2.209 0-4-1.791-4-4v-6c0-2.209 1.791-4 4-4h12c2.209 0 4 1.791 4 4v6c0 2.209-1.791 4-4 4" fill="#3d98f7"/><path d="m6 44v14h4v-10h4v10h4v-14" fill="#4d5d7a"/><path d="m12 30c-1.657 0-3-1.343-3-3v-2c0-1.657 1.343-3 3-3 1.657 0 3 1.343 3 3v2c0 1.657-1.343 3-3 3z" fill="#efbe9a"/><path d="m18 46v-4h4c0 2.209-1.791 4-4 4z" fill="#efbe9a"/><path d="m6 46v-4h-4c0 2.209 1.791 4 4 4z" fill="#efbe9a"/><path d="m4 62h6v-4h-4c-1.105 0-2 .895-2 2z" fill="#3d98f7"/><path d="m20 62h-6v-4h4c1.105 0 2 .895 2 2z" fill="#3d98f7"/></svg>